<svg width="605" height="481" viewBox="0 0 605 481" fill="none" xmlns="http://www.w3.org/2000/svg">
<rect width="605" height="481" fill="#E5E5E5" fill-opacity="0.52"/>
<path d="M85.574 106.8V167H71.642V117.98H59.602V106.8H85.574ZM116.672 129.418C125.157 129.418 131.406 131.109 135.42 134.492C139.49 137.875 141.526 142.404 141.526 148.08C141.526 151.749 140.608 155.103 138.774 158.142C136.939 161.123 134.13 163.531 130.346 165.366C126.619 167.143 122.004 168.032 116.5 168.032C112.257 168.032 108.072 167.487 103.944 166.398C99.8731 165.251 96.4044 163.646 93.5377 161.582L99.0417 150.918C101.335 152.638 103.972 153.985 106.954 154.96C109.935 155.877 113.002 156.336 116.156 156.336C119.653 156.336 122.405 155.648 124.412 154.272C126.418 152.896 127.422 150.975 127.422 148.51C127.422 145.93 126.361 143.981 124.24 142.662C122.176 141.343 118.564 140.684 113.404 140.684H98.0097L101.106 106.8H137.828V117.98H112.716L111.77 129.418H116.672ZM160.27 139.308C155.856 139.308 152.244 137.817 149.434 134.836C146.682 131.797 145.306 127.755 145.306 122.71C145.306 117.665 146.682 113.651 149.434 110.67C152.244 107.631 155.856 106.112 160.27 106.112C164.685 106.112 168.268 107.631 171.02 110.67C173.772 113.651 175.148 117.665 175.148 122.71C175.148 127.755 173.772 131.797 171.02 134.836C168.268 137.817 164.685 139.308 160.27 139.308ZM196.132 106.8H206.366L165.258 167H155.024L196.132 106.8ZM160.27 132.256C162.22 132.256 163.739 131.453 164.828 129.848C165.975 128.243 166.548 125.863 166.548 122.71C166.548 119.557 165.975 117.177 164.828 115.572C163.739 113.967 162.22 113.164 160.27 113.164C158.378 113.164 156.859 113.995 155.712 115.658C154.566 117.263 153.992 119.614 153.992 122.71C153.992 125.806 154.566 128.185 155.712 129.848C156.859 131.453 158.378 132.256 160.27 132.256ZM201.12 167.688C198.254 167.688 195.674 167.029 193.38 165.71C191.144 164.334 189.396 162.385 188.134 159.862C186.873 157.339 186.242 154.415 186.242 151.09C186.242 147.765 186.873 144.841 188.134 142.318C189.396 139.795 191.144 137.875 193.38 136.556C195.674 135.18 198.254 134.492 201.12 134.492C205.535 134.492 209.118 136.011 211.87 139.05C214.68 142.031 216.084 146.045 216.084 151.09C216.084 156.135 214.68 160.177 211.87 163.216C209.118 166.197 205.535 167.688 201.12 167.688ZM201.12 160.636C203.07 160.636 204.589 159.833 205.678 158.228C206.825 156.565 207.398 154.186 207.398 151.09C207.398 147.994 206.825 145.643 205.678 144.038C204.589 142.375 203.07 141.544 201.12 141.544C199.228 141.544 197.709 142.347 196.562 143.952C195.416 145.557 194.842 147.937 194.842 151.09C194.842 154.243 195.416 156.623 196.562 158.228C197.709 159.833 199.228 160.636 201.12 160.636ZM95.292 273.032C89.0427 273.032 83.3953 271.685 78.35 268.99C73.362 266.295 69.4347 262.597 66.568 257.896C63.7587 253.137 62.354 247.805 62.354 241.9C62.354 235.995 63.7587 230.691 66.568 225.99C69.4347 221.231 73.362 217.505 78.35 214.81C83.3953 212.115 89.0427 210.768 95.292 210.768C101.541 210.768 107.16 212.115 112.148 214.81C117.136 217.505 121.063 221.231 123.93 225.99C126.797 230.691 128.23 235.995 128.23 241.9C128.23 247.805 126.797 253.137 123.93 257.896C121.063 262.597 117.136 266.295 112.148 268.99C107.16 271.685 101.541 273.032 95.292 273.032ZM95.292 261.164C98.8467 261.164 102.057 260.361 104.924 258.756C107.791 257.093 110.027 254.8 111.632 251.876C113.295 248.952 114.126 245.627 114.126 241.9C114.126 238.173 113.295 234.848 111.632 231.924C110.027 229 107.791 226.735 104.924 225.13C102.057 223.467 98.8467 222.636 95.292 222.636C91.7373 222.636 88.5267 223.467 85.66 225.13C82.7933 226.735 80.5287 229 78.866 231.924C77.2607 234.848 76.458 238.173 76.458 241.9C76.458 245.627 77.2607 248.952 78.866 251.876C80.5287 254.8 82.7933 257.093 85.66 258.756C88.5267 260.361 91.7373 261.164 95.292 261.164ZM152.633 222.98V238.89H180.497V250.07H152.633V272H138.701V211.8H184.195V222.98H152.633ZM207.558 222.98V238.89H235.422V250.07H207.558V272H193.626V211.8H239.12V222.98H207.558Z" fill="#EE3342"/>
<path d="M356.066 149L356.026 132.2L347.786 146.04H344.866L336.666 132.56V149H330.586V121H335.946L346.426 138.4L356.746 121H362.066L362.146 149H356.066ZM377.029 127.16C380.362 127.16 382.922 127.96 384.709 129.56C386.495 131.133 387.389 133.52 387.389 136.72V149H381.549V146.32C380.375 148.32 378.189 149.32 374.989 149.32C373.335 149.32 371.895 149.04 370.669 148.48C369.469 147.92 368.549 147.147 367.909 146.16C367.269 145.173 366.949 144.053 366.949 142.8C366.949 140.8 367.695 139.227 369.189 138.08C370.709 136.933 373.042 136.36 376.189 136.36H381.149C381.149 135 380.735 133.96 379.909 133.24C379.082 132.493 377.842 132.12 376.189 132.12C375.042 132.12 373.909 132.307 372.789 132.68C371.695 133.027 370.762 133.507 369.989 134.12L367.749 129.76C368.922 128.933 370.322 128.293 371.949 127.84C373.602 127.387 375.295 127.16 377.029 127.16ZM376.549 145.12C377.615 145.12 378.562 144.88 379.389 144.4C380.215 143.893 380.802 143.16 381.149 142.2V140H376.869C374.309 140 373.029 140.84 373.029 142.52C373.029 143.32 373.335 143.96 373.949 144.44C374.589 144.893 375.455 145.12 376.549 145.12ZM402.276 140.56L399.276 143.52V149H393.036V119.32H399.276V136.12L408.396 127.48H415.836L406.876 136.6L416.636 149H409.076L402.276 140.56ZM439.585 138.32C439.585 138.4 439.545 138.96 439.465 140H423.185C423.478 141.333 424.172 142.387 425.265 143.16C426.358 143.933 427.718 144.32 429.345 144.32C430.465 144.32 431.452 144.16 432.305 143.84C433.185 143.493 433.998 142.96 434.745 142.24L438.065 145.84C436.038 148.16 433.078 149.32 429.185 149.32C426.758 149.32 424.612 148.853 422.745 147.92C420.878 146.96 419.438 145.64 418.425 143.96C417.412 142.28 416.905 140.373 416.905 138.24C416.905 136.133 417.398 134.24 418.385 132.56C419.398 130.853 420.772 129.533 422.505 128.6C424.265 127.64 426.225 127.16 428.385 127.16C430.492 127.16 432.398 127.613 434.105 128.52C435.812 129.427 437.145 130.733 438.105 132.44C439.092 134.12 439.585 136.08 439.585 138.32ZM428.425 131.88C427.012 131.88 425.825 132.28 424.865 133.08C423.905 133.88 423.318 134.973 423.105 136.36H433.705C433.492 135 432.905 133.92 431.945 133.12C430.985 132.293 429.812 131.88 428.425 131.88ZM468.948 139.08V149H462.467V139L451.627 121H458.508L465.988 133.44L473.468 121H479.828L468.948 139.08ZM489.956 149.32C487.689 149.32 485.649 148.853 483.836 147.92C482.049 146.96 480.649 145.64 479.636 143.96C478.623 142.28 478.116 140.373 478.116 138.24C478.116 136.107 478.623 134.2 479.636 132.52C480.649 130.84 482.049 129.533 483.836 128.6C485.649 127.64 487.689 127.16 489.956 127.16C492.223 127.16 494.249 127.64 496.036 128.6C497.823 129.533 499.223 130.84 500.236 132.52C501.249 134.2 501.756 136.107 501.756 138.24C501.756 140.373 501.249 142.28 500.236 143.96C499.223 145.64 497.823 146.96 496.036 147.92C494.249 148.853 492.223 149.32 489.956 149.32ZM489.956 144.2C491.556 144.2 492.863 143.667 493.876 142.6C494.916 141.507 495.436 140.053 495.436 138.24C495.436 136.427 494.916 134.987 493.876 133.92C492.863 132.827 491.556 132.28 489.956 132.28C488.356 132.28 487.036 132.827 485.996 133.92C484.956 134.987 484.436 136.427 484.436 138.24C484.436 140.053 484.956 141.507 485.996 142.6C487.036 143.667 488.356 144.2 489.956 144.2ZM527.607 127.48V149H521.687V146.44C520.86 147.373 519.874 148.093 518.727 148.6C517.58 149.08 516.34 149.32 515.007 149.32C512.18 149.32 509.94 148.507 508.287 146.88C506.634 145.253 505.807 142.84 505.807 139.64V127.48H512.047V138.72C512.047 142.187 513.5 143.92 516.407 143.92C517.9 143.92 519.1 143.44 520.007 142.48C520.914 141.493 521.367 140.04 521.367 138.12V127.48H527.607ZM539.348 130.32C540.094 129.28 541.094 128.493 542.348 127.96C543.628 127.427 545.094 127.16 546.748 127.16V132.92C546.054 132.867 545.588 132.84 545.348 132.84C543.561 132.84 542.161 133.347 541.148 134.36C540.134 135.347 539.628 136.84 539.628 138.84V149H533.388V127.48H539.348V130.32ZM333.438 192.8V198H311.758V170H332.918V175.2H318.198V181.28H331.198V186.32H318.198V192.8H333.438ZM351.233 176.16C353.9 176.16 356.047 176.96 357.673 178.56C359.327 180.16 360.153 182.533 360.153 185.68V198H353.913V186.64C353.913 184.933 353.54 183.667 352.793 182.84C352.047 181.987 350.967 181.56 349.553 181.56C347.98 181.56 346.727 182.053 345.793 183.04C344.86 184 344.393 185.44 344.393 187.36V198H338.153V176.48H344.113V179C344.94 178.093 345.967 177.4 347.193 176.92C348.42 176.413 349.767 176.16 351.233 176.16ZM379.69 196.96C379.076 197.413 378.316 197.76 377.41 198C376.53 198.213 375.596 198.32 374.61 198.32C372.05 198.32 370.063 197.667 368.65 196.36C367.263 195.053 366.57 193.133 366.57 190.6V181.76H363.25V176.96H366.57V171.72H372.81V176.96H378.17V181.76H372.81V190.52C372.81 191.427 373.036 192.133 373.49 192.64C373.97 193.12 374.636 193.36 375.49 193.36C376.476 193.36 377.316 193.093 378.01 192.56L379.69 196.96ZM383.193 176.48H389.433V198H383.193V176.48ZM386.313 173.48C385.166 173.48 384.233 173.147 383.513 172.48C382.793 171.813 382.433 170.987 382.433 170C382.433 169.013 382.793 168.187 383.513 167.52C384.233 166.853 385.166 166.52 386.313 166.52C387.459 166.52 388.393 166.84 389.113 167.48C389.833 168.12 390.193 168.92 390.193 169.88C390.193 170.92 389.833 171.787 389.113 172.48C388.393 173.147 387.459 173.48 386.313 173.48ZM401.184 179.32C401.93 178.28 402.93 177.493 404.184 176.96C405.464 176.427 406.93 176.16 408.584 176.16V181.92C407.89 181.867 407.424 181.84 407.184 181.84C405.397 181.84 403.997 182.347 402.984 183.36C401.97 184.347 401.464 185.84 401.464 187.84V198H395.224V176.48H401.184V179.32ZM433.179 187.32C433.179 187.4 433.139 187.96 433.059 189H416.779C417.072 190.333 417.765 191.387 418.859 192.16C419.952 192.933 421.312 193.32 422.939 193.32C424.059 193.32 425.045 193.16 425.899 192.84C426.779 192.493 427.592 191.96 428.339 191.24L431.659 194.84C429.632 197.16 426.672 198.32 422.779 198.32C420.352 198.32 418.205 197.853 416.339 196.92C414.472 195.96 413.032 194.64 412.019 192.96C411.005 191.28 410.499 189.373 410.499 187.24C410.499 185.133 410.992 183.24 411.979 181.56C412.992 179.853 414.365 178.533 416.099 177.6C417.859 176.64 419.819 176.16 421.979 176.16C424.085 176.16 425.992 176.613 427.699 177.52C429.405 178.427 430.739 179.733 431.699 181.44C432.685 183.12 433.179 185.08 433.179 187.32ZM422.019 180.88C420.605 180.88 419.419 181.28 418.459 182.08C417.499 182.88 416.912 183.973 416.699 185.36H427.299C427.085 184 426.499 182.92 425.539 182.12C424.579 181.293 423.405 180.88 422.019 180.88ZM462.661 198.48C459.755 198.48 457.128 197.853 454.781 196.6C452.461 195.347 450.635 193.627 449.301 191.44C447.995 189.227 447.341 186.747 447.341 184C447.341 181.253 447.995 178.787 449.301 176.6C450.635 174.387 452.461 172.653 454.781 171.4C457.128 170.147 459.755 169.52 462.661 169.52C465.568 169.52 468.181 170.147 470.501 171.4C472.821 172.653 474.648 174.387 475.981 176.6C477.315 178.787 477.981 181.253 477.981 184C477.981 186.747 477.315 189.227 475.981 191.44C474.648 193.627 472.821 195.347 470.501 196.6C468.181 197.853 465.568 198.48 462.661 198.48ZM462.661 192.96C464.315 192.96 465.808 192.587 467.141 191.84C468.475 191.067 469.515 190 470.261 188.64C471.035 187.28 471.421 185.733 471.421 184C471.421 182.267 471.035 180.72 470.261 179.36C469.515 178 468.475 176.947 467.141 176.2C465.808 175.427 464.315 175.04 462.661 175.04C461.008 175.04 459.515 175.427 458.181 176.2C456.848 176.947 455.795 178 455.021 179.36C454.275 180.72 453.901 182.267 453.901 184C453.901 185.733 454.275 187.28 455.021 188.64C455.795 190 456.848 191.067 458.181 191.84C459.515 192.587 461.008 192.96 462.661 192.96ZM488.371 179.32C489.118 178.28 490.118 177.493 491.371 176.96C492.651 176.427 494.118 176.16 495.771 176.16V181.92C495.078 181.867 494.611 181.84 494.371 181.84C492.585 181.84 491.185 182.347 490.171 183.36C489.158 184.347 488.651 185.84 488.651 187.84V198H482.411V176.48H488.371V179.32ZM521.206 168.32V198H515.246V195.52C513.7 197.387 511.46 198.32 508.526 198.32C506.5 198.32 504.66 197.867 503.006 196.96C501.38 196.053 500.1 194.76 499.166 193.08C498.233 191.4 497.766 189.453 497.766 187.24C497.766 185.027 498.233 183.08 499.166 181.4C500.1 179.72 501.38 178.427 503.006 177.52C504.66 176.613 506.5 176.16 508.526 176.16C511.273 176.16 513.42 177.027 514.966 178.76V168.32H521.206ZM509.606 193.2C511.18 193.2 512.486 192.667 513.526 191.6C514.566 190.507 515.086 189.053 515.086 187.24C515.086 185.427 514.566 183.987 513.526 182.92C512.486 181.827 511.18 181.28 509.606 181.28C508.006 181.28 506.686 181.827 505.646 182.92C504.606 183.987 504.086 185.427 504.086 187.24C504.086 189.053 504.606 190.507 505.646 191.6C506.686 192.667 508.006 193.2 509.606 193.2ZM548.062 187.32C548.062 187.4 548.022 187.96 547.942 189H531.662C531.955 190.333 532.648 191.387 533.742 192.16C534.835 192.933 536.195 193.32 537.822 193.32C538.942 193.32 539.928 193.16 540.782 192.84C541.662 192.493 542.475 191.96 543.222 191.24L546.542 194.84C544.515 197.16 541.555 198.32 537.662 198.32C535.235 198.32 533.088 197.853 531.222 196.92C529.355 195.96 527.915 194.64 526.902 192.96C525.888 191.28 525.382 189.373 525.382 187.24C525.382 185.133 525.875 183.24 526.862 181.56C527.875 179.853 529.248 178.533 530.982 177.6C532.742 176.64 534.702 176.16 536.862 176.16C538.968 176.16 540.875 176.613 542.582 177.52C544.288 178.427 545.622 179.733 546.582 181.44C547.568 183.12 548.062 185.08 548.062 187.32ZM536.902 180.88C535.488 180.88 534.302 181.28 533.342 182.08C532.382 182.88 531.795 183.973 531.582 185.36H542.182C541.968 184 541.382 182.92 540.422 182.12C539.462 181.293 538.288 180.88 536.902 180.88ZM558.176 179.32C558.923 178.28 559.923 177.493 561.176 176.96C562.456 176.427 563.923 176.16 565.576 176.16V181.92C564.883 181.867 564.416 181.84 564.176 181.84C562.389 181.84 560.989 182.347 559.976 183.36C558.963 184.347 558.456 185.84 558.456 187.84V198H552.216V176.48H558.176V179.32ZM385.083 247.48C382.176 247.48 379.55 246.853 377.203 245.6C374.883 244.347 373.056 242.627 371.723 240.44C370.416 238.227 369.763 235.747 369.763 233C369.763 230.253 370.416 227.787 371.723 225.6C373.056 223.387 374.883 221.653 377.203 220.4C379.55 219.147 382.176 218.52 385.083 218.52C387.99 218.52 390.603 219.147 392.923 220.4C395.243 221.653 397.07 223.387 398.403 225.6C399.736 227.787 400.403 230.253 400.403 233C400.403 235.747 399.736 238.227 398.403 240.44C397.07 242.627 395.243 244.347 392.923 245.6C390.603 246.853 387.99 247.48 385.083 247.48ZM385.083 241.96C386.736 241.96 388.23 241.587 389.563 240.84C390.896 240.067 391.936 239 392.683 237.64C393.456 236.28 393.843 234.733 393.843 233C393.843 231.267 393.456 229.72 392.683 228.36C391.936 227 390.896 225.947 389.563 225.2C388.23 224.427 386.736 224.04 385.083 224.04C383.43 224.04 381.936 224.427 380.603 225.2C379.27 225.947 378.216 227 377.443 228.36C376.696 229.72 376.323 231.267 376.323 233C376.323 234.733 376.696 236.28 377.443 237.64C378.216 239 379.27 240.067 380.603 240.84C381.936 241.587 383.43 241.96 385.083 241.96ZM417.913 225.16C420.58 225.16 422.726 225.96 424.353 227.56C426.006 229.16 426.833 231.533 426.833 234.68V247H420.593V235.64C420.593 233.933 420.22 232.667 419.473 231.84C418.726 230.987 417.646 230.56 416.233 230.56C414.66 230.56 413.406 231.053 412.473 232.04C411.54 233 411.073 234.44 411.073 236.36V247H404.833V225.48H410.793V228C411.62 227.093 412.646 226.4 413.873 225.92C415.1 225.413 416.446 225.16 417.913 225.16ZM432.489 217.32H438.729V247H432.489V217.32ZM444.521 225.48H450.761V247H444.521V225.48ZM447.641 222.48C446.494 222.48 445.561 222.147 444.841 221.48C444.121 220.813 443.761 219.987 443.761 219C443.761 218.013 444.121 217.187 444.841 216.52C445.561 215.853 446.494 215.52 447.641 215.52C448.787 215.52 449.721 215.84 450.441 216.48C451.161 217.12 451.521 217.92 451.521 218.88C451.521 219.92 451.161 220.787 450.441 221.48C449.721 222.147 448.787 222.48 447.641 222.48ZM469.632 225.16C472.299 225.16 474.445 225.96 476.072 227.56C477.725 229.16 478.552 231.533 478.552 234.68V247H472.312V235.64C472.312 233.933 471.939 232.667 471.192 231.84C470.445 230.987 469.365 230.56 467.952 230.56C466.379 230.56 465.125 231.053 464.192 232.04C463.259 233 462.792 234.44 462.792 236.36V247H456.552V225.48H462.512V228C463.339 227.093 464.365 226.4 465.592 225.92C466.819 225.413 468.165 225.16 469.632 225.16ZM505.523 236.32C505.523 236.4 505.483 236.96 505.403 238H489.123C489.416 239.333 490.109 240.387 491.203 241.16C492.296 241.933 493.656 242.32 495.283 242.32C496.403 242.32 497.389 242.16 498.243 241.84C499.123 241.493 499.936 240.96 500.683 240.24L504.003 243.84C501.976 246.16 499.016 247.32 495.123 247.32C492.696 247.32 490.549 246.853 488.683 245.92C486.816 244.96 485.376 243.64 484.363 241.96C483.349 240.28 482.843 238.373 482.843 236.24C482.843 234.133 483.336 232.24 484.323 230.56C485.336 228.853 486.709 227.533 488.443 226.6C490.203 225.64 492.163 225.16 494.323 225.16C496.429 225.16 498.336 225.613 500.043 226.52C501.749 227.427 503.083 228.733 504.043 230.44C505.029 232.12 505.523 234.08 505.523 236.32ZM494.363 229.88C492.949 229.88 491.763 230.28 490.803 231.08C489.843 231.88 489.256 232.973 489.043 234.36H499.643C499.429 233 498.843 231.92 497.883 231.12C496.923 230.293 495.749 229.88 494.363 229.88Z" fill="#EE3342"/>
<path d="M137.483 345.66L437.163 347.572C450.694 347.658 461.593 358.697 461.507 372.228L461.339 398.489C461.253 412.019 450.214 422.918 436.683 422.832L137.003 420.919C123.472 420.833 112.573 409.794 112.66 396.264L112.827 370.003C112.914 356.472 123.952 345.573 137.483 345.66Z" fill="#EE3342" stroke="white"/>
<path d="M140.626 396.384C138.343 396.384 136.274 395.893 134.418 394.912C132.583 393.909 131.133 392.533 130.066 390.784C129.021 389.013 128.498 387.019 128.498 384.8C128.498 382.581 129.021 380.597 130.066 378.848C131.133 377.077 132.583 375.701 134.418 374.72C136.274 373.717 138.354 373.216 140.658 373.216C142.599 373.216 144.349 373.557 145.906 374.24C147.485 374.923 148.807 375.904 149.874 377.184L146.546 380.256C145.031 378.507 143.154 377.632 140.914 377.632C139.527 377.632 138.29 377.941 137.202 378.56C136.114 379.157 135.261 380 134.642 381.088C134.045 382.176 133.746 383.413 133.746 384.8C133.746 386.187 134.045 387.424 134.642 388.512C135.261 389.6 136.114 390.453 137.202 391.072C138.29 391.669 139.527 391.968 140.914 391.968C143.154 391.968 145.031 391.083 146.546 389.312L149.874 392.384C148.807 393.685 147.485 394.677 145.906 395.36C144.327 396.043 142.567 396.384 140.626 396.384ZM153.023 372.256H158.015V396H153.023V372.256ZM162.648 378.784H167.64V396H162.648V378.784ZM165.144 376.384C164.226 376.384 163.48 376.117 162.904 375.584C162.328 375.051 162.04 374.389 162.04 373.6C162.04 372.811 162.328 372.149 162.904 371.616C163.48 371.083 164.226 370.816 165.144 370.816C166.061 370.816 166.808 371.072 167.384 371.584C167.96 372.096 168.248 372.736 168.248 373.504C168.248 374.336 167.96 375.029 167.384 375.584C166.808 376.117 166.061 376.384 165.144 376.384ZM180.593 396.256C178.758 396.256 177.105 395.883 175.633 395.136C174.182 394.368 173.041 393.312 172.209 391.968C171.398 390.624 170.993 389.099 170.993 387.392C170.993 385.685 171.398 384.16 172.209 382.816C173.041 381.472 174.182 380.427 175.633 379.68C177.105 378.912 178.758 378.528 180.593 378.528C182.406 378.528 183.985 378.912 185.329 379.68C186.694 380.427 187.686 381.504 188.305 382.912L184.433 384.992C183.537 383.413 182.246 382.624 180.561 382.624C179.259 382.624 178.182 383.051 177.329 383.904C176.475 384.757 176.049 385.92 176.049 387.392C176.049 388.864 176.475 390.027 177.329 390.88C178.182 391.733 179.259 392.16 180.561 392.16C182.267 392.16 183.558 391.371 184.433 389.792L188.305 391.904C187.686 393.269 186.694 394.336 185.329 395.104C183.985 395.872 182.406 396.256 180.593 396.256ZM198.446 389.248L196.046 391.616V396H191.054V372.256H196.046V385.696L203.342 378.784H209.294L202.126 386.08L209.934 396H203.886L198.446 389.248ZM242.138 373.6V396H236.954V386.816H226.778V396H221.594V373.6H226.778V382.432H236.954V373.6H242.138ZM263.949 387.456C263.949 387.52 263.917 387.968 263.853 388.8H250.829C251.064 389.867 251.619 390.709 252.493 391.328C253.368 391.947 254.456 392.256 255.757 392.256C256.653 392.256 257.443 392.128 258.125 391.872C258.829 391.595 259.48 391.168 260.077 390.592L262.733 393.472C261.112 395.328 258.744 396.256 255.629 396.256C253.688 396.256 251.971 395.883 250.477 395.136C248.984 394.368 247.832 393.312 247.021 391.968C246.211 390.624 245.805 389.099 245.805 387.392C245.805 385.707 246.2 384.192 246.989 382.848C247.8 381.483 248.899 380.427 250.285 379.68C251.693 378.912 253.261 378.528 254.989 378.528C256.675 378.528 258.2 378.891 259.565 379.616C260.931 380.341 261.997 381.387 262.765 382.752C263.555 384.096 263.949 385.664 263.949 387.456ZM255.021 382.304C253.891 382.304 252.941 382.624 252.173 383.264C251.405 383.904 250.936 384.779 250.765 385.888H259.245C259.075 384.8 258.605 383.936 257.837 383.296C257.069 382.635 256.131 382.304 255.021 382.304ZM272.041 381.056C272.638 380.224 273.438 379.595 274.441 379.168C275.465 378.741 276.638 378.528 277.961 378.528V383.136C277.406 383.093 277.033 383.072 276.841 383.072C275.411 383.072 274.291 383.477 273.481 384.288C272.67 385.077 272.265 386.272 272.265 387.872V396H267.273V378.784H272.041V381.056ZM297.637 387.456C297.637 387.52 297.605 387.968 297.541 388.8H284.517C284.751 389.867 285.306 390.709 286.181 391.328C287.055 391.947 288.143 392.256 289.445 392.256C290.341 392.256 291.13 392.128 291.813 391.872C292.517 391.595 293.167 391.168 293.765 390.592L296.421 393.472C294.799 395.328 292.431 396.256 289.317 396.256C287.375 396.256 285.658 395.883 284.165 395.136C282.671 394.368 281.519 393.312 280.709 391.968C279.898 390.624 279.493 389.099 279.493 387.392C279.493 385.707 279.887 384.192 280.677 382.848C281.487 381.483 282.586 380.427 283.973 379.68C285.381 378.912 286.949 378.528 288.677 378.528C290.362 378.528 291.887 378.891 293.253 379.616C294.618 380.341 295.685 381.387 296.453 382.752C297.242 384.096 297.637 385.664 297.637 387.456ZM288.709 382.304C287.578 382.304 286.629 382.624 285.861 383.264C285.093 383.904 284.623 384.779 284.453 385.888H292.933C292.762 384.8 292.293 383.936 291.525 383.296C290.757 382.635 289.818 382.304 288.709 382.304ZM321.127 395.168C320.636 395.531 320.028 395.808 319.303 396C318.599 396.171 317.852 396.256 317.063 396.256C315.015 396.256 313.425 395.733 312.295 394.688C311.185 393.643 310.631 392.107 310.631 390.08V383.008H307.975V379.168H310.631V374.976H315.623V379.168H319.911V383.008H315.623V390.016C315.623 390.741 315.804 391.307 316.167 391.712C316.551 392.096 317.084 392.288 317.767 392.288C318.556 392.288 319.228 392.075 319.783 391.648L321.127 395.168ZM331.59 396.256C329.776 396.256 328.144 395.883 326.694 395.136C325.264 394.368 324.144 393.312 323.334 391.968C322.523 390.624 322.118 389.099 322.118 387.392C322.118 385.685 322.523 384.16 323.334 382.816C324.144 381.472 325.264 380.427 326.694 379.68C328.144 378.912 329.776 378.528 331.59 378.528C333.403 378.528 335.024 378.912 336.454 379.68C337.883 380.427 339.003 381.472 339.814 382.816C340.624 384.16 341.03 385.685 341.03 387.392C341.03 389.099 340.624 390.624 339.814 391.968C339.003 393.312 337.883 394.368 336.454 395.136C335.024 395.883 333.403 396.256 331.59 396.256ZM331.59 392.16C332.87 392.16 333.915 391.733 334.726 390.88C335.558 390.005 335.974 388.843 335.974 387.392C335.974 385.941 335.558 384.789 334.726 383.936C333.915 383.061 332.87 382.624 331.59 382.624C330.31 382.624 329.254 383.061 328.422 383.936C327.59 384.789 327.174 385.941 327.174 387.392C327.174 388.843 327.59 390.005 328.422 390.88C329.254 391.733 330.31 392.16 331.59 392.16ZM364.629 396.384C362.304 396.384 360.202 395.883 358.325 394.88C356.469 393.877 355.008 392.501 353.941 390.752C352.896 388.981 352.373 386.997 352.373 384.8C352.373 382.603 352.896 380.629 353.941 378.88C355.008 377.109 356.469 375.723 358.325 374.72C360.202 373.717 362.304 373.216 364.629 373.216C366.954 373.216 369.045 373.717 370.901 374.72C372.757 375.723 374.218 377.109 375.285 378.88C376.352 380.629 376.885 382.603 376.885 384.8C376.885 386.997 376.352 388.981 375.285 390.752C374.218 392.501 372.757 393.877 370.901 394.88C369.045 395.883 366.954 396.384 364.629 396.384ZM364.629 391.968C365.952 391.968 367.146 391.669 368.213 391.072C369.28 390.453 370.112 389.6 370.709 388.512C371.328 387.424 371.637 386.187 371.637 384.8C371.637 383.413 371.328 382.176 370.709 381.088C370.112 380 369.28 379.157 368.213 378.56C367.146 377.941 365.952 377.632 364.629 377.632C363.306 377.632 362.112 377.941 361.045 378.56C359.978 379.157 359.136 380 358.517 381.088C357.92 382.176 357.621 383.413 357.621 384.8C357.621 386.187 357.92 387.424 358.517 388.512C359.136 389.6 359.978 390.453 361.045 391.072C362.112 391.669 363.306 391.968 364.629 391.968ZM385.197 381.056C385.794 380.224 386.594 379.595 387.597 379.168C388.621 378.741 389.794 378.528 391.117 378.528V383.136C390.562 383.093 390.189 383.072 389.997 383.072C388.568 383.072 387.448 383.477 386.637 384.288C385.826 385.077 385.421 386.272 385.421 387.872V396H380.429V378.784H385.197V381.056ZM411.465 372.256V396H406.697V394.016C405.46 395.509 403.668 396.256 401.321 396.256C399.7 396.256 398.228 395.893 396.905 395.168C395.604 394.443 394.58 393.408 393.833 392.064C393.086 390.72 392.713 389.163 392.713 387.392C392.713 385.621 393.086 384.064 393.833 382.72C394.58 381.376 395.604 380.341 396.905 379.616C398.228 378.891 399.7 378.528 401.321 378.528C403.518 378.528 405.236 379.221 406.473 380.608V372.256H411.465ZM402.185 392.16C403.444 392.16 404.489 391.733 405.321 390.88C406.153 390.005 406.569 388.843 406.569 387.392C406.569 385.941 406.153 384.789 405.321 383.936C404.489 383.061 403.444 382.624 402.185 382.624C400.905 382.624 399.849 383.061 399.017 383.936C398.185 384.789 397.769 385.941 397.769 387.392C397.769 388.843 398.185 390.005 399.017 390.88C399.849 391.733 400.905 392.16 402.185 392.16ZM432.949 387.456C432.949 387.52 432.917 387.968 432.853 388.8H419.829C420.064 389.867 420.619 390.709 421.493 391.328C422.368 391.947 423.456 392.256 424.757 392.256C425.653 392.256 426.443 392.128 427.125 391.872C427.829 391.595 428.48 391.168 429.077 390.592L431.733 393.472C430.112 395.328 427.744 396.256 424.629 396.256C422.688 396.256 420.971 395.883 419.477 395.136C417.984 394.368 416.832 393.312 416.021 391.968C415.211 390.624 414.805 389.099 414.805 387.392C414.805 385.707 415.2 384.192 415.989 382.848C416.8 381.483 417.899 380.427 419.285 379.68C420.693 378.912 422.261 378.528 423.989 378.528C425.675 378.528 427.2 378.891 428.565 379.616C429.931 380.341 430.997 381.387 431.765 382.752C432.555 384.096 432.949 385.664 432.949 387.456ZM424.021 382.304C422.891 382.304 421.941 382.624 421.173 383.264C420.405 383.904 419.936 384.779 419.765 385.888H428.245C428.075 384.8 427.605 383.936 426.837 383.296C426.069 382.635 425.131 382.304 424.021 382.304ZM441.041 381.056C441.638 380.224 442.438 379.595 443.441 379.168C444.465 378.741 445.638 378.528 446.961 378.528V383.136C446.406 383.093 446.033 383.072 445.841 383.072C444.411 383.072 443.291 383.477 442.481 384.288C441.67 385.077 441.265 386.272 441.265 387.872V396H436.273V378.784H441.041V381.056Z" fill="white"/>
</svg>
