<svg width="593" height="500" viewBox="0 0 593 500" fill="none" xmlns="http://www.w3.org/2000/svg">
<rect width="593" height="500" fill="#E5E5E5" fill-opacity="0.4"/>
<ellipse cx="286.5" cy="93" rx="188.5" ry="54" fill="#FFD154"/>
<ellipse cx="286.5" cy="399.5" rx="169.5" ry="48.5" fill="#EE3342"/>
<path d="M206.397 109.576C202.909 109.576 199.757 108.824 196.941 107.32C194.157 105.816 191.965 103.752 190.365 101.128C188.797 98.472 188.013 95.496 188.013 92.2C188.013 88.904 188.797 85.944 190.365 83.32C191.965 80.664 194.157 78.584 196.941 77.08C199.757 75.576 202.909 74.824 206.397 74.824C209.885 74.824 213.021 75.576 215.805 77.08C218.589 78.584 220.781 80.664 222.381 83.32C223.981 85.944 224.781 88.904 224.781 92.2C224.781 95.496 223.981 98.472 222.381 101.128C220.781 103.752 218.589 105.816 215.805 107.32C213.021 108.824 209.885 109.576 206.397 109.576ZM206.397 102.952C208.381 102.952 210.173 102.504 211.773 101.608C213.373 100.68 214.621 99.4 215.517 97.768C216.445 96.136 216.909 94.28 216.909 92.2C216.909 90.12 216.445 88.264 215.517 86.632C214.621 85 213.373 83.736 211.773 82.84C210.173 81.912 208.381 81.448 206.397 81.448C204.413 81.448 202.621 81.912 201.021 82.84C199.421 83.736 198.157 85 197.229 86.632C196.333 88.264 195.885 90.12 195.885 92.2C195.885 94.28 196.333 96.136 197.229 97.768C198.157 99.4 199.421 100.68 201.021 101.608C202.621 102.504 204.413 102.952 206.397 102.952ZM237.249 86.584C238.145 85.336 239.345 84.392 240.849 83.752C242.385 83.112 244.145 82.792 246.129 82.792V89.704C245.297 89.64 244.737 89.608 244.449 89.608C242.305 89.608 240.625 90.216 239.409 91.432C238.193 92.616 237.585 94.408 237.585 96.808V109H230.097V83.176H237.249V86.584ZM250.581 83.176H258.069V109H250.581V83.176ZM254.325 79.576C252.949 79.576 251.829 79.176 250.965 78.376C250.101 77.576 249.669 76.584 249.669 75.4C249.669 74.216 250.101 73.224 250.965 72.424C251.829 71.624 252.949 71.224 254.325 71.224C255.701 71.224 256.821 71.608 257.685 72.376C258.549 73.144 258.981 74.104 258.981 75.256C258.981 76.504 258.549 77.544 257.685 78.376C256.821 79.176 255.701 79.576 254.325 79.576ZM291.659 83.176V104.68C291.659 109.416 290.427 112.936 287.963 115.24C285.499 117.544 281.899 118.696 277.163 118.696C274.667 118.696 272.299 118.392 270.059 117.784C267.819 117.176 265.963 116.296 264.491 115.144L267.467 109.768C268.555 110.664 269.931 111.368 271.595 111.88C273.259 112.424 274.923 112.696 276.587 112.696C279.179 112.696 281.083 112.104 282.299 110.92C283.547 109.768 284.171 108.008 284.171 105.64V104.536C282.219 106.68 279.499 107.752 276.011 107.752C273.643 107.752 271.467 107.24 269.483 106.216C267.531 105.16 265.979 103.688 264.827 101.8C263.675 99.912 263.099 97.736 263.099 95.272C263.099 92.808 263.675 90.632 264.827 88.744C265.979 86.856 267.531 85.4 269.483 84.376C271.467 83.32 273.643 82.792 276.011 82.792C279.755 82.792 282.603 84.024 284.555 86.488V83.176H291.659ZM277.499 101.608C279.483 101.608 281.099 101.032 282.347 99.88C283.627 98.696 284.267 97.16 284.267 95.272C284.267 93.384 283.627 91.864 282.347 90.712C281.099 89.528 279.483 88.936 277.499 88.936C275.515 88.936 273.883 89.528 272.603 90.712C271.323 91.864 270.683 93.384 270.683 95.272C270.683 97.16 271.323 98.696 272.603 99.88C273.883 101.032 275.515 101.608 277.499 101.608ZM298.628 83.176H306.116V109H298.628V83.176ZM302.372 79.576C300.996 79.576 299.876 79.176 299.012 78.376C298.148 77.576 297.716 76.584 297.716 75.4C297.716 74.216 298.148 73.224 299.012 72.424C299.876 71.624 300.996 71.224 302.372 71.224C303.748 71.224 304.868 71.608 305.732 72.376C306.596 73.144 307.028 74.104 307.028 75.256C307.028 76.504 306.596 77.544 305.732 78.376C304.868 79.176 303.748 79.576 302.372 79.576ZM328.761 82.792C331.961 82.792 334.537 83.752 336.489 85.672C338.473 87.592 339.465 90.44 339.465 94.216V109H331.977V95.368C331.977 93.32 331.529 91.8 330.633 90.808C329.737 89.784 328.441 89.272 326.745 89.272C324.857 89.272 323.353 89.864 322.233 91.048C321.113 92.2 320.553 93.928 320.553 96.232V109H313.065V83.176H320.217V86.2C321.209 85.112 322.441 84.28 323.913 83.704C325.385 83.096 327.001 82.792 328.761 82.792ZM356.669 82.792C360.669 82.792 363.741 83.752 365.885 85.672C368.029 87.56 369.101 90.424 369.101 94.264V109H362.093V105.784C360.685 108.184 358.061 109.384 354.221 109.384C352.237 109.384 350.509 109.048 349.037 108.376C347.597 107.704 346.493 106.776 345.725 105.592C344.957 104.408 344.573 103.064 344.573 101.56C344.573 99.16 345.469 97.272 347.261 95.896C349.085 94.52 351.885 93.832 355.661 93.832H361.613C361.613 92.2 361.117 90.952 360.125 90.088C359.133 89.192 357.645 88.744 355.661 88.744C354.285 88.744 352.925 88.968 351.581 89.416C350.269 89.832 349.149 90.408 348.221 91.144L345.533 85.912C346.941 84.92 348.621 84.152 350.573 83.608C352.557 83.064 354.589 82.792 356.669 82.792ZM356.093 104.344C357.373 104.344 358.509 104.056 359.501 103.48C360.493 102.872 361.197 101.992 361.613 100.84V98.2H356.477C353.405 98.2 351.869 99.208 351.869 101.224C351.869 102.184 352.237 102.952 352.973 103.528C353.741 104.072 354.781 104.344 356.093 104.344ZM375.878 73.384H383.366V109H375.878V73.384Z" fill="#F13859"/>
<path d="M230.107 414.61L217.883 416.536L212.448 382.053L224.773 380.111C228.242 379.564 231.336 379.784 234.057 380.77C236.776 381.745 239.012 383.411 240.764 385.77C242.527 388.126 243.691 391.095 244.256 394.676C244.822 398.268 244.629 401.462 243.678 404.257C242.738 407.051 241.113 409.338 238.805 411.117C236.509 412.894 233.609 414.058 230.107 414.61ZM224.189 409.141L228.819 408.411C230.974 408.071 232.727 407.404 234.077 406.409C235.437 405.401 236.36 404.03 236.846 402.297C237.342 400.551 237.387 398.393 236.982 395.822C236.58 393.274 235.876 391.251 234.869 389.753C233.873 388.253 232.58 387.238 230.989 386.706C229.399 386.175 227.526 386.079 225.37 386.418L220.723 387.151L224.189 409.141ZM252.821 375.69L253.394 379.327C253.556 380.36 253.521 381.447 253.286 382.588C253.062 383.717 252.693 384.81 252.181 385.868C251.668 386.916 251.07 387.832 250.389 388.619L246.929 387.248C247.35 386.273 247.689 385.213 247.946 384.068C248.214 382.922 248.236 381.636 248.011 380.21L247.433 376.539L252.821 375.69ZM263.168 409.4L257.733 374.916L265.024 373.767L269.511 402.24L284.294 399.91L285.242 405.921L263.168 409.4ZM289.935 405.181L285.859 379.318L293.032 378.188L297.108 404.051L289.935 405.181ZM288.937 375.417C287.871 375.585 286.9 375.375 286.025 374.788C285.16 374.189 284.649 373.389 284.491 372.39C284.336 371.402 284.578 370.496 285.219 369.67C285.869 368.831 286.727 368.328 287.793 368.16C288.86 367.992 289.826 368.208 290.691 368.807C291.566 369.394 292.081 370.182 292.237 371.169C292.394 372.168 292.148 373.087 291.498 373.926C290.857 374.752 290.003 375.249 288.937 375.417ZM321.459 381.266L314.956 382.705C314.755 382.161 314.434 381.694 313.993 381.304C313.55 380.902 313.004 380.614 312.355 380.44C311.716 380.253 310.981 380.225 310.151 380.356C309.039 380.531 308.139 380.915 307.45 381.507C306.76 382.087 306.475 382.765 306.597 383.539C306.695 384.157 307.024 384.64 307.585 384.988C308.146 385.337 309.047 385.546 310.289 385.615L315.119 385.82C317.715 385.94 319.72 386.475 321.135 387.426C322.55 388.376 323.405 389.783 323.699 391.646C323.966 393.341 323.701 394.907 322.903 396.344C322.117 397.78 320.916 398.993 319.301 399.984C317.695 400.961 315.769 401.627 313.524 401.981C310.101 402.521 307.261 402.238 305.004 401.132C302.757 400.014 301.265 398.247 300.528 395.833L307.525 394.35C307.902 395.361 308.544 396.076 309.45 396.497C310.355 396.907 311.447 397.011 312.726 396.809C313.984 396.611 314.956 396.211 315.643 395.608C316.34 394.992 316.633 394.296 316.522 393.519C316.408 392.87 316.049 392.38 315.445 392.05C314.839 391.708 313.957 391.513 312.799 391.466L308.179 391.279C305.574 391.172 303.556 390.593 302.125 389.542C300.705 388.488 299.843 386.996 299.539 385.066C299.277 383.404 299.5 381.902 300.209 380.56C300.929 379.215 302.057 378.089 303.593 377.179C305.141 376.268 307.02 375.638 309.232 375.29C312.498 374.775 315.177 375.06 317.27 376.146C319.373 377.229 320.769 378.936 321.459 381.266ZM334.295 382.867L336.651 397.819L329.478 398.949L324.044 364.466L331.015 363.367L333.092 376.551L333.395 376.503C333.738 374.885 334.493 373.54 335.659 372.471C336.823 371.39 338.387 370.695 340.352 370.385C342.148 370.102 343.775 370.248 345.235 370.824C346.704 371.386 347.924 372.338 348.895 373.681C349.875 375.01 350.519 376.686 350.826 378.708L353.421 395.176L346.249 396.306L343.855 381.119C343.615 379.523 343.015 378.346 342.056 377.588C341.108 376.829 339.905 376.564 338.445 376.794C337.469 376.948 336.637 377.292 335.951 377.826C335.275 378.358 334.787 379.056 334.486 379.92C334.195 380.772 334.131 381.754 334.295 382.867Z" fill="#FFD154"/>
<path d="M161.737 224H156.464L164.499 200.727H170.839L178.862 224H173.589L167.76 206.045H167.578L161.737 224ZM161.408 214.852H173.862V218.693H161.408V214.852ZM189.763 206.545V210.182H179.251V206.545H189.763ZM181.638 202.364H186.479V218.636C186.479 219.083 186.547 219.432 186.683 219.682C186.82 219.924 187.009 220.095 187.251 220.193C187.501 220.292 187.789 220.341 188.115 220.341C188.342 220.341 188.57 220.322 188.797 220.284C189.024 220.239 189.198 220.205 189.32 220.182L190.081 223.784C189.839 223.86 189.498 223.947 189.058 224.045C188.619 224.152 188.085 224.216 187.456 224.239C186.289 224.284 185.267 224.129 184.388 223.773C183.517 223.417 182.839 222.864 182.354 222.114C181.869 221.364 181.63 220.417 181.638 219.273V202.364ZM200.413 200.727H206.482L212.891 216.364H213.163L219.572 200.727H225.641V224H220.868V208.852H220.675L214.652 223.886H211.402L205.379 208.795H205.186V224H200.413V200.727ZM229.604 224V206.545H234.297V209.591H234.479C234.797 208.508 235.331 207.689 236.081 207.136C236.831 206.576 237.695 206.295 238.672 206.295C238.914 206.295 239.176 206.311 239.456 206.341C239.736 206.371 239.982 206.413 240.195 206.466V210.761C239.967 210.693 239.653 210.633 239.251 210.58C238.85 210.527 238.482 210.5 238.149 210.5C237.437 210.5 236.801 210.655 236.24 210.966C235.687 211.269 235.248 211.693 234.922 212.239C234.604 212.784 234.445 213.413 234.445 214.125V224H229.604ZM243.527 224.295C242.777 224.295 242.133 224.03 241.595 223.5C241.065 222.962 240.8 222.318 240.8 221.568C240.8 220.826 241.065 220.189 241.595 219.659C242.133 219.129 242.777 218.864 243.527 218.864C244.254 218.864 244.891 219.129 245.436 219.659C245.982 220.189 246.254 220.826 246.254 221.568C246.254 222.068 246.125 222.527 245.868 222.943C245.618 223.352 245.288 223.682 244.879 223.932C244.47 224.174 244.019 224.295 243.527 224.295ZM265.95 200.727H270.814V216.955C270.814 218.455 270.477 219.758 269.803 220.864C269.136 221.97 268.208 222.822 267.018 223.42C265.829 224.019 264.446 224.318 262.871 224.318C261.469 224.318 260.196 224.072 259.053 223.58C257.916 223.08 257.015 222.322 256.348 221.307C255.681 220.284 255.352 219 255.359 217.455H260.257C260.272 218.068 260.397 218.595 260.632 219.034C260.875 219.466 261.204 219.799 261.621 220.034C262.045 220.261 262.545 220.375 263.121 220.375C263.727 220.375 264.238 220.246 264.655 219.989C265.079 219.723 265.401 219.337 265.621 218.83C265.84 218.322 265.95 217.697 265.95 216.955V200.727ZM274.791 224V206.545H279.632V224H274.791ZM277.223 204.295C276.503 204.295 275.886 204.057 275.371 203.58C274.863 203.095 274.609 202.515 274.609 201.841C274.609 201.174 274.863 200.602 275.371 200.125C275.886 199.64 276.503 199.398 277.223 199.398C277.943 199.398 278.556 199.64 279.064 200.125C279.579 200.602 279.837 201.174 279.837 201.841C279.837 202.515 279.579 203.095 279.064 203.58C278.556 204.057 277.943 204.295 277.223 204.295ZM283.51 224V206.545H288.124V209.625H288.328C288.692 208.602 289.298 207.795 290.146 207.205C290.995 206.614 292.01 206.318 293.192 206.318C294.389 206.318 295.408 206.617 296.249 207.216C297.089 207.807 297.65 208.61 297.93 209.625H298.112C298.468 208.625 299.112 207.826 300.044 207.227C300.983 206.621 302.093 206.318 303.374 206.318C305.002 206.318 306.324 206.837 307.339 207.875C308.362 208.905 308.874 210.367 308.874 212.261V224H304.044V213.216C304.044 212.246 303.786 211.519 303.271 211.034C302.756 210.549 302.112 210.307 301.339 210.307C300.461 210.307 299.775 210.587 299.283 211.148C298.79 211.701 298.544 212.432 298.544 213.341V224H293.851V213.114C293.851 212.258 293.605 211.576 293.112 211.068C292.627 210.561 291.987 210.307 291.192 210.307C290.654 210.307 290.169 210.443 289.737 210.716C289.313 210.981 288.976 211.356 288.726 211.841C288.476 212.318 288.351 212.879 288.351 213.523V224H283.51ZM327.22 211.523L322.788 211.795C322.713 211.417 322.55 211.076 322.3 210.773C322.05 210.462 321.72 210.216 321.311 210.034C320.91 209.845 320.429 209.75 319.868 209.75C319.118 209.75 318.485 209.909 317.97 210.227C317.455 210.538 317.197 210.955 317.197 211.477C317.197 211.894 317.364 212.246 317.697 212.534C318.031 212.822 318.603 213.053 319.413 213.227L322.572 213.864C324.269 214.212 325.535 214.773 326.368 215.545C327.201 216.318 327.618 217.333 327.618 218.591C327.618 219.735 327.281 220.739 326.607 221.602C325.94 222.466 325.023 223.14 323.857 223.625C322.697 224.102 321.36 224.341 319.845 224.341C317.535 224.341 315.694 223.86 314.322 222.898C312.959 221.928 312.16 220.61 311.925 218.943L316.686 218.693C316.83 219.398 317.179 219.936 317.732 220.307C318.285 220.67 318.993 220.852 319.857 220.852C320.705 220.852 321.387 220.689 321.902 220.364C322.425 220.03 322.69 219.602 322.697 219.08C322.69 218.64 322.504 218.28 322.141 218C321.777 217.712 321.216 217.492 320.459 217.341L317.436 216.739C315.732 216.398 314.463 215.807 313.629 214.966C312.804 214.125 312.391 213.053 312.391 211.75C312.391 210.629 312.694 209.663 313.3 208.852C313.913 208.042 314.773 207.417 315.879 206.977C316.993 206.538 318.296 206.318 319.788 206.318C321.993 206.318 323.728 206.784 324.993 207.716C326.266 208.648 327.008 209.917 327.22 211.523ZM338.163 224V200.727H347.345C349.11 200.727 350.614 201.064 351.857 201.739C353.099 202.405 354.046 203.333 354.697 204.523C355.357 205.705 355.686 207.068 355.686 208.614C355.686 210.159 355.353 211.523 354.686 212.705C354.019 213.886 353.054 214.807 351.788 215.466C350.531 216.125 349.008 216.455 347.22 216.455H341.368V212.511H346.425C347.372 212.511 348.152 212.348 348.766 212.023C349.387 211.689 349.849 211.231 350.152 210.648C350.463 210.057 350.618 209.379 350.618 208.614C350.618 207.841 350.463 207.167 350.152 206.591C349.849 206.008 349.387 205.557 348.766 205.239C348.144 204.913 347.357 204.75 346.402 204.75H343.084V224H338.163ZM358.791 224V206.545H363.632V224H358.791ZM361.223 204.295C360.503 204.295 359.886 204.057 359.371 203.58C358.863 203.095 358.609 202.515 358.609 201.841C358.609 201.174 358.863 200.602 359.371 200.125C359.886 199.64 360.503 199.398 361.223 199.398C361.943 199.398 362.556 199.64 363.064 200.125C363.579 200.602 363.837 201.174 363.837 201.841C363.837 202.515 363.579 203.095 363.064 203.58C362.556 204.057 361.943 204.295 361.223 204.295ZM367.419 224V221.114L375.964 210.534V210.409H367.714V206.545H381.794V209.693L373.771 220.011V220.136H382.089V224H367.419ZM385.7 224V221.114L394.246 210.534V210.409H385.996V206.545H400.075V209.693L392.053 220.011V220.136H400.371V224H385.7ZM409.05 224.33C407.936 224.33 406.944 224.136 406.072 223.75C405.201 223.356 404.512 222.777 404.004 222.011C403.504 221.239 403.254 220.277 403.254 219.125C403.254 218.155 403.432 217.341 403.788 216.682C404.144 216.023 404.629 215.492 405.243 215.091C405.857 214.689 406.554 214.386 407.334 214.182C408.122 213.977 408.947 213.833 409.811 213.75C410.826 213.644 411.644 213.545 412.266 213.455C412.887 213.356 413.338 213.212 413.618 213.023C413.898 212.833 414.038 212.553 414.038 212.182V212.114C414.038 211.394 413.811 210.837 413.357 210.443C412.91 210.049 412.273 209.852 411.447 209.852C410.576 209.852 409.883 210.045 409.368 210.432C408.853 210.811 408.512 211.288 408.345 211.864L403.868 211.5C404.095 210.439 404.542 209.523 405.209 208.75C405.875 207.97 406.735 207.371 407.788 206.955C408.849 206.53 410.076 206.318 411.47 206.318C412.44 206.318 413.368 206.432 414.254 206.659C415.148 206.886 415.94 207.239 416.629 207.716C417.326 208.193 417.875 208.807 418.277 209.557C418.679 210.299 418.879 211.189 418.879 212.227V224H414.288V221.58H414.152C413.872 222.125 413.497 222.606 413.027 223.023C412.557 223.432 411.993 223.754 411.334 223.989C410.675 224.216 409.913 224.33 409.05 224.33ZM410.436 220.989C411.148 220.989 411.777 220.848 412.322 220.568C412.868 220.28 413.296 219.894 413.607 219.409C413.917 218.924 414.072 218.375 414.072 217.761V215.909C413.921 216.008 413.713 216.098 413.447 216.182C413.19 216.258 412.898 216.33 412.572 216.398C412.247 216.458 411.921 216.515 411.595 216.568C411.269 216.614 410.974 216.655 410.709 216.693C410.141 216.777 409.644 216.909 409.22 217.091C408.796 217.273 408.466 217.519 408.232 217.83C407.997 218.133 407.879 218.511 407.879 218.966C407.879 219.625 408.118 220.129 408.595 220.477C409.08 220.818 409.694 220.989 410.436 220.989ZM427.896 220.818L427.771 222.068C427.673 223.068 427.483 224.064 427.203 225.057C426.93 226.057 426.643 226.962 426.339 227.773C426.044 228.583 425.805 229.22 425.624 229.682H422.487C422.601 229.235 422.756 228.61 422.953 227.807C423.15 227.011 423.336 226.117 423.51 225.125C423.684 224.133 423.794 223.121 423.839 222.091L423.896 220.818H427.896ZM124.433 263L117.774 239.727H123.149L127.001 255.898H127.195L131.445 239.727H136.047L140.286 255.932H140.49L144.342 239.727H149.717L143.058 263H138.263L133.831 247.784H133.649L129.229 263H124.433ZM158.339 263.341C156.544 263.341 154.999 262.977 153.703 262.25C152.415 261.515 151.423 260.477 150.726 259.136C150.029 257.788 149.68 256.193 149.68 254.352C149.68 252.557 150.029 250.981 150.726 249.625C151.423 248.269 152.404 247.212 153.669 246.455C154.942 245.697 156.434 245.318 158.146 245.318C159.298 245.318 160.37 245.504 161.362 245.875C162.362 246.239 163.233 246.788 163.976 247.523C164.726 248.258 165.309 249.182 165.726 250.295C166.143 251.402 166.351 252.697 166.351 254.182V255.511H151.612V252.511H161.794C161.794 251.814 161.643 251.197 161.339 250.659C161.036 250.121 160.616 249.701 160.078 249.398C159.548 249.087 158.93 248.932 158.226 248.932C157.491 248.932 156.839 249.102 156.271 249.443C155.711 249.777 155.271 250.227 154.953 250.795C154.635 251.356 154.472 251.981 154.464 252.67V255.523C154.464 256.386 154.624 257.133 154.942 257.761C155.268 258.39 155.726 258.875 156.317 259.216C156.908 259.557 157.608 259.727 158.419 259.727C158.957 259.727 159.449 259.652 159.896 259.5C160.343 259.348 160.726 259.121 161.044 258.818C161.362 258.515 161.605 258.144 161.771 257.705L166.249 258C166.021 259.076 165.555 260.015 164.851 260.818C164.154 261.614 163.252 262.235 162.146 262.682C161.048 263.121 159.779 263.341 158.339 263.341ZM173.567 239.727V242.182C173.567 242.879 173.43 243.591 173.158 244.318C172.893 245.038 172.536 245.72 172.089 246.364C171.643 247 171.154 247.542 170.624 247.989L168.487 246.727C168.866 246.129 169.199 245.466 169.487 244.739C169.783 244.011 169.93 243.167 169.93 242.205V239.727H173.567ZM193.814 245.545L187.712 263H182.257L176.155 245.545H181.268L184.893 258.034H185.075L188.689 245.545H193.814ZM203.683 263.341C201.888 263.341 200.342 262.977 199.047 262.25C197.759 261.515 196.767 260.477 196.07 259.136C195.373 257.788 195.024 256.193 195.024 254.352C195.024 252.557 195.373 250.981 196.07 249.625C196.767 248.269 197.748 247.212 199.013 246.455C200.286 245.697 201.778 245.318 203.49 245.318C204.642 245.318 205.714 245.504 206.706 245.875C207.706 246.239 208.577 246.788 209.32 247.523C210.07 248.258 210.653 249.182 211.07 250.295C211.486 251.402 211.695 252.697 211.695 254.182V255.511H196.956V252.511H207.138C207.138 251.814 206.986 251.197 206.683 250.659C206.38 250.121 205.96 249.701 205.422 249.398C204.892 249.087 204.274 248.932 203.57 248.932C202.835 248.932 202.183 249.102 201.615 249.443C201.054 249.777 200.615 250.227 200.297 250.795C199.979 251.356 199.816 251.981 199.808 252.67V255.523C199.808 256.386 199.967 257.133 200.286 257.761C200.611 258.39 201.07 258.875 201.661 259.216C202.251 259.557 202.952 259.727 203.763 259.727C204.301 259.727 204.793 259.652 205.24 259.5C205.687 259.348 206.07 259.121 206.388 258.818C206.706 258.515 206.948 258.144 207.115 257.705L211.592 258C211.365 259.076 210.899 260.015 210.195 260.818C209.498 261.614 208.596 262.235 207.49 262.682C206.392 263.121 205.123 263.341 203.683 263.341ZM230.124 269.909C228.555 269.909 227.211 269.693 226.089 269.261C224.976 268.837 224.089 268.258 223.43 267.523C222.771 266.788 222.343 265.962 222.146 265.045L226.624 264.443C226.76 264.792 226.976 265.117 227.271 265.42C227.567 265.723 227.957 265.966 228.442 266.148C228.934 266.337 229.533 266.432 230.237 266.432C231.29 266.432 232.158 266.174 232.839 265.659C233.529 265.152 233.874 264.299 233.874 263.102V259.909H233.669C233.457 260.394 233.139 260.852 232.714 261.284C232.29 261.716 231.745 262.068 231.078 262.341C230.411 262.614 229.616 262.75 228.692 262.75C227.381 262.75 226.188 262.447 225.112 261.841C224.044 261.227 223.192 260.292 222.555 259.034C221.927 257.769 221.612 256.17 221.612 254.239C221.612 252.261 221.934 250.61 222.578 249.284C223.222 247.958 224.078 246.966 225.146 246.307C226.222 245.648 227.4 245.318 228.68 245.318C229.658 245.318 230.476 245.485 231.135 245.818C231.794 246.144 232.324 246.553 232.726 247.045C233.135 247.53 233.449 248.008 233.669 248.477H233.851V245.545H238.658V263.17C238.658 264.655 238.294 265.898 237.567 266.898C236.839 267.898 235.832 268.648 234.544 269.148C233.264 269.655 231.79 269.909 230.124 269.909ZM230.226 259.114C231.006 259.114 231.665 258.92 232.203 258.534C232.749 258.14 233.165 257.58 233.453 256.852C233.749 256.117 233.896 255.239 233.896 254.216C233.896 253.193 233.752 252.307 233.464 251.557C233.177 250.799 232.76 250.212 232.214 249.795C231.669 249.379 231.006 249.17 230.226 249.17C229.43 249.17 228.76 249.386 228.214 249.818C227.669 250.242 227.256 250.833 226.976 251.591C226.696 252.348 226.555 253.223 226.555 254.216C226.555 255.223 226.696 256.095 226.976 256.83C227.264 257.557 227.677 258.121 228.214 258.523C228.76 258.917 229.43 259.114 230.226 259.114ZM250.396 263.341C248.631 263.341 247.105 262.966 245.817 262.216C244.536 261.458 243.548 260.405 242.851 259.057C242.154 257.701 241.805 256.129 241.805 254.341C241.805 252.538 242.154 250.962 242.851 249.614C243.548 248.258 244.536 247.205 245.817 246.455C247.105 245.697 248.631 245.318 250.396 245.318C252.161 245.318 253.684 245.697 254.964 246.455C256.252 247.205 257.245 248.258 257.942 249.614C258.639 250.962 258.987 252.538 258.987 254.341C258.987 256.129 258.639 257.701 257.942 259.057C257.245 260.405 256.252 261.458 254.964 262.216C253.684 262.966 252.161 263.341 250.396 263.341ZM250.419 259.591C251.222 259.591 251.893 259.364 252.43 258.909C252.968 258.447 253.374 257.818 253.646 257.023C253.927 256.227 254.067 255.322 254.067 254.307C254.067 253.292 253.927 252.386 253.646 251.591C253.374 250.795 252.968 250.167 252.43 249.705C251.893 249.242 251.222 249.011 250.419 249.011C249.608 249.011 248.927 249.242 248.374 249.705C247.828 250.167 247.415 250.795 247.135 251.591C246.862 252.386 246.726 253.292 246.726 254.307C246.726 255.322 246.862 256.227 247.135 257.023C247.415 257.818 247.828 258.447 248.374 258.909C248.927 259.364 249.608 259.591 250.419 259.591ZM271.419 245.545V249.182H260.908V245.545H271.419ZM263.294 241.364H268.135V257.636C268.135 258.083 268.203 258.432 268.339 258.682C268.476 258.924 268.665 259.095 268.908 259.193C269.158 259.292 269.446 259.341 269.771 259.341C269.999 259.341 270.226 259.322 270.453 259.284C270.68 259.239 270.855 259.205 270.976 259.182L271.737 262.784C271.495 262.86 271.154 262.947 270.714 263.045C270.275 263.152 269.741 263.216 269.112 263.239C267.946 263.284 266.923 263.129 266.044 262.773C265.173 262.417 264.495 261.864 264.01 261.114C263.525 260.364 263.286 259.417 263.294 258.273V241.364ZM291.263 245.545V249.182H280.751V245.545H291.263ZM283.138 241.364H287.979V257.636C287.979 258.083 288.047 258.432 288.183 258.682C288.32 258.924 288.509 259.095 288.751 259.193C289.001 259.292 289.289 259.341 289.615 259.341C289.842 259.341 290.07 259.322 290.297 259.284C290.524 259.239 290.698 259.205 290.82 259.182L291.581 262.784C291.339 262.86 290.998 262.947 290.558 263.045C290.119 263.152 289.585 263.216 288.956 263.239C287.789 263.284 286.767 263.129 285.888 262.773C285.017 262.417 284.339 261.864 283.854 261.114C283.369 260.364 283.13 259.417 283.138 258.273V241.364ZM302.115 263.341C300.35 263.341 298.823 262.966 297.536 262.216C296.255 261.458 295.267 260.405 294.57 259.057C293.873 257.701 293.524 256.129 293.524 254.341C293.524 252.538 293.873 250.962 294.57 249.614C295.267 248.258 296.255 247.205 297.536 246.455C298.823 245.697 300.35 245.318 302.115 245.318C303.88 245.318 305.403 245.697 306.683 246.455C307.971 247.205 308.964 248.258 309.661 249.614C310.357 250.962 310.706 252.538 310.706 254.341C310.706 256.129 310.357 257.701 309.661 259.057C308.964 260.405 307.971 261.458 306.683 262.216C305.403 262.966 303.88 263.341 302.115 263.341ZM302.138 259.591C302.941 259.591 303.611 259.364 304.149 258.909C304.687 258.447 305.092 257.818 305.365 257.023C305.645 256.227 305.786 255.322 305.786 254.307C305.786 253.292 305.645 252.386 305.365 251.591C305.092 250.795 304.687 250.167 304.149 249.705C303.611 249.242 302.941 249.011 302.138 249.011C301.327 249.011 300.645 249.242 300.092 249.705C299.547 250.167 299.134 250.795 298.854 251.591C298.581 252.386 298.445 253.292 298.445 254.307C298.445 255.322 298.581 256.227 298.854 257.023C299.134 257.818 299.547 258.447 300.092 258.909C300.645 259.364 301.327 259.591 302.138 259.591ZM330.646 245.545V249.182H319.874V245.545H330.646ZM322.339 263V244.284C322.339 243.019 322.586 241.97 323.078 241.136C323.578 240.303 324.26 239.678 325.124 239.261C325.987 238.845 326.968 238.636 328.067 238.636C328.809 238.636 329.487 238.693 330.101 238.807C330.722 238.92 331.184 239.023 331.487 239.114L330.624 242.75C330.434 242.689 330.199 242.633 329.919 242.58C329.646 242.527 329.366 242.5 329.078 242.5C328.366 242.5 327.87 242.667 327.589 243C327.309 243.326 327.169 243.784 327.169 244.375V263H322.339ZM333.604 263V245.545H338.445V263H333.604ZM336.036 243.295C335.316 243.295 334.698 243.057 334.183 242.58C333.676 242.095 333.422 241.515 333.422 240.841C333.422 240.174 333.676 239.602 334.183 239.125C334.698 238.64 335.316 238.398 336.036 238.398C336.755 238.398 337.369 238.64 337.876 239.125C338.392 239.602 338.649 240.174 338.649 240.841C338.649 241.515 338.392 242.095 337.876 242.58C337.369 243.057 336.755 243.295 336.036 243.295ZM351.607 245.545V249.182H341.095V245.545H351.607ZM343.482 241.364H348.322V257.636C348.322 258.083 348.391 258.432 348.527 258.682C348.663 258.924 348.853 259.095 349.095 259.193C349.345 259.292 349.633 259.341 349.959 259.341C350.186 259.341 350.413 259.322 350.641 259.284C350.868 259.239 351.042 259.205 351.163 259.182L351.925 262.784C351.682 262.86 351.341 262.947 350.902 263.045C350.463 263.152 349.929 263.216 349.3 263.239C348.133 263.284 347.11 263.129 346.232 262.773C345.36 262.417 344.682 261.864 344.197 261.114C343.713 260.364 343.474 259.417 343.482 258.273V241.364ZM371.45 245.545V249.182H360.939V245.545H371.45ZM363.325 241.364H368.166V257.636C368.166 258.083 368.234 258.432 368.371 258.682C368.507 258.924 368.696 259.095 368.939 259.193C369.189 259.292 369.477 259.341 369.803 259.341C370.03 259.341 370.257 259.322 370.484 259.284C370.712 259.239 370.886 259.205 371.007 259.182L371.768 262.784C371.526 262.86 371.185 262.947 370.746 263.045C370.306 263.152 369.772 263.216 369.143 263.239C367.977 263.284 366.954 263.129 366.075 262.773C365.204 262.417 364.526 261.864 364.041 261.114C363.556 260.364 363.318 259.417 363.325 258.273V241.364ZM379.82 252.909V263H374.979V239.727H379.683V248.625H379.888C380.282 247.595 380.918 246.788 381.797 246.205C382.676 245.614 383.778 245.318 385.104 245.318C386.316 245.318 387.373 245.583 388.274 246.114C389.183 246.636 389.888 247.39 390.388 248.375C390.895 249.352 391.145 250.523 391.138 251.886V263H386.297V252.75C386.304 251.674 386.032 250.837 385.479 250.239C384.933 249.64 384.168 249.341 383.183 249.341C382.524 249.341 381.941 249.481 381.433 249.761C380.933 250.042 380.539 250.451 380.251 250.989C379.971 251.519 379.827 252.159 379.82 252.909ZM402.902 263.341C401.107 263.341 399.561 262.977 398.266 262.25C396.978 261.515 395.985 260.477 395.288 259.136C394.591 257.788 394.243 256.193 394.243 254.352C394.243 252.557 394.591 250.981 395.288 249.625C395.985 248.269 396.966 247.212 398.232 246.455C399.504 245.697 400.997 245.318 402.709 245.318C403.86 245.318 404.932 245.504 405.925 245.875C406.925 246.239 407.796 246.788 408.538 247.523C409.288 248.258 409.872 249.182 410.288 250.295C410.705 251.402 410.913 252.697 410.913 254.182V255.511H396.175V252.511H406.357C406.357 251.814 406.205 251.197 405.902 250.659C405.599 250.121 405.179 249.701 404.641 249.398C404.11 249.087 403.493 248.932 402.788 248.932C402.054 248.932 401.402 249.102 400.834 249.443C400.273 249.777 399.834 250.227 399.516 250.795C399.197 251.356 399.035 251.981 399.027 252.67V255.523C399.027 256.386 399.186 257.133 399.504 257.761C399.83 258.39 400.288 258.875 400.879 259.216C401.47 259.557 402.171 259.727 402.982 259.727C403.519 259.727 404.012 259.652 404.459 259.5C404.906 259.348 405.288 259.121 405.607 258.818C405.925 258.515 406.167 258.144 406.334 257.705L410.811 258C410.584 259.076 410.118 260.015 409.413 260.818C408.716 261.614 407.815 262.235 406.709 262.682C405.61 263.121 404.341 263.341 402.902 263.341ZM426.32 239.727V263H421.479V239.727H426.32ZM430.197 263V245.545H435.038V263H430.197ZM432.629 243.295C431.91 243.295 431.292 243.057 430.777 242.58C430.269 242.095 430.016 241.515 430.016 240.841C430.016 240.174 430.269 239.602 430.777 239.125C431.292 238.64 431.91 238.398 432.629 238.398C433.349 238.398 433.963 238.64 434.47 239.125C434.985 239.602 435.243 240.174 435.243 240.841C435.243 241.515 434.985 242.095 434.47 242.58C433.963 243.057 433.349 243.295 432.629 243.295ZM448.303 245.545V249.182H437.53V245.545H448.303ZM439.996 263V244.284C439.996 243.019 440.242 241.97 440.734 241.136C441.234 240.303 441.916 239.678 442.78 239.261C443.643 238.845 444.625 238.636 445.723 238.636C446.465 238.636 447.143 238.693 447.757 238.807C448.378 238.92 448.84 239.023 449.143 239.114L448.28 242.75C448.09 242.689 447.856 242.633 447.575 242.58C447.303 242.527 447.022 242.5 446.734 242.5C446.022 242.5 445.526 242.667 445.246 243C444.965 243.326 444.825 243.784 444.825 244.375V263H439.996ZM458.589 263.341C456.794 263.341 455.249 262.977 453.953 262.25C452.665 261.515 451.673 260.477 450.976 259.136C450.279 257.788 449.93 256.193 449.93 254.352C449.93 252.557 450.279 250.981 450.976 249.625C451.673 248.269 452.654 247.212 453.919 246.455C455.192 245.697 456.684 245.318 458.396 245.318C459.548 245.318 460.62 245.504 461.612 245.875C462.612 246.239 463.483 246.788 464.226 247.523C464.976 248.258 465.559 249.182 465.976 250.295C466.393 251.402 466.601 252.697 466.601 254.182V255.511H451.862V252.511H462.044C462.044 251.814 461.893 251.197 461.589 250.659C461.286 250.121 460.866 249.701 460.328 249.398C459.798 249.087 459.18 248.932 458.476 248.932C457.741 248.932 457.089 249.102 456.521 249.443C455.961 249.777 455.521 250.227 455.203 250.795C454.885 251.356 454.722 251.981 454.714 252.67V255.523C454.714 256.386 454.874 257.133 455.192 257.761C455.518 258.39 455.976 258.875 456.567 259.216C457.158 259.557 457.858 259.727 458.669 259.727C459.207 259.727 459.699 259.652 460.146 259.5C460.593 259.348 460.976 259.121 461.294 258.818C461.612 258.515 461.855 258.144 462.021 257.705L466.499 258C466.271 259.076 465.805 260.015 465.101 260.818C464.404 261.614 463.502 262.235 462.396 262.682C461.298 263.121 460.029 263.341 458.589 263.341ZM232.717 308.545C232.104 308.545 231.528 308.496 230.99 308.398C230.46 308.307 230.02 308.189 229.672 308.045L230.763 304.432C231.331 304.606 231.842 304.701 232.297 304.716C232.759 304.731 233.157 304.625 233.49 304.398C233.831 304.17 234.107 303.784 234.32 303.239L234.604 302.5L228.342 284.545H233.433L237.047 297.364H237.229L240.876 284.545H246.001L239.217 303.886C238.892 304.826 238.448 305.644 237.888 306.341C237.335 307.045 236.634 307.587 235.786 307.966C234.937 308.352 233.914 308.545 232.717 308.545ZM255.803 302.341C254.037 302.341 252.511 301.966 251.223 301.216C249.943 300.458 248.954 299.405 248.257 298.057C247.56 296.701 247.212 295.129 247.212 293.341C247.212 291.538 247.56 289.962 248.257 288.614C248.954 287.258 249.943 286.205 251.223 285.455C252.511 284.697 254.037 284.318 255.803 284.318C257.568 284.318 259.09 284.697 260.371 285.455C261.659 286.205 262.651 287.258 263.348 288.614C264.045 289.962 264.393 291.538 264.393 293.341C264.393 295.129 264.045 296.701 263.348 298.057C262.651 299.405 261.659 300.458 260.371 301.216C259.09 301.966 257.568 302.341 255.803 302.341ZM255.825 298.591C256.628 298.591 257.299 298.364 257.837 297.909C258.375 297.447 258.78 296.818 259.053 296.023C259.333 295.227 259.473 294.322 259.473 293.307C259.473 292.292 259.333 291.386 259.053 290.591C258.78 289.795 258.375 289.167 257.837 288.705C257.299 288.242 256.628 288.011 255.825 288.011C255.015 288.011 254.333 288.242 253.78 288.705C253.234 289.167 252.821 289.795 252.541 290.591C252.268 291.386 252.132 292.292 252.132 293.307C252.132 294.322 252.268 295.227 252.541 296.023C252.821 296.818 253.234 297.447 253.78 297.909C254.333 298.364 255.015 298.591 255.825 298.591ZM278.734 294.568V284.545H283.575V302H278.928V298.83H278.746C278.352 299.852 277.696 300.674 276.78 301.295C275.871 301.917 274.761 302.227 273.45 302.227C272.284 302.227 271.257 301.962 270.371 301.432C269.484 300.902 268.791 300.148 268.291 299.17C267.799 298.193 267.549 297.023 267.541 295.659V284.545H272.382V294.795C272.39 295.826 272.666 296.64 273.212 297.239C273.757 297.837 274.488 298.136 275.405 298.136C275.988 298.136 276.534 298.004 277.041 297.739C277.549 297.466 277.958 297.064 278.268 296.534C278.587 296.004 278.742 295.348 278.734 294.568ZM299.695 278.727V302H294.854V278.727H299.695ZM303.572 302V284.545H308.413V302H303.572ZM306.004 282.295C305.285 282.295 304.667 282.057 304.152 281.58C303.644 281.095 303.391 280.515 303.391 279.841C303.391 279.174 303.644 278.602 304.152 278.125C304.667 277.64 305.285 277.398 306.004 277.398C306.724 277.398 307.338 277.64 307.845 278.125C308.36 278.602 308.618 279.174 308.618 279.841C308.618 280.515 308.36 281.095 307.845 281.58C307.338 282.057 306.724 282.295 306.004 282.295ZM328.564 284.545L322.462 302H317.007L310.905 284.545H316.018L319.643 297.034H319.825L323.439 284.545H328.564ZM338.433 302.341C336.638 302.341 335.092 301.977 333.797 301.25C332.509 300.515 331.517 299.477 330.82 298.136C330.123 296.788 329.774 295.193 329.774 293.352C329.774 291.557 330.123 289.981 330.82 288.625C331.517 287.269 332.498 286.212 333.763 285.455C335.036 284.697 336.528 284.318 338.24 284.318C339.392 284.318 340.464 284.504 341.456 284.875C342.456 285.239 343.327 285.788 344.07 286.523C344.82 287.258 345.403 288.182 345.82 289.295C346.236 290.402 346.445 291.697 346.445 293.182V294.511H331.706V291.511H341.888C341.888 290.814 341.736 290.197 341.433 289.659C341.13 289.121 340.71 288.701 340.172 288.398C339.642 288.087 339.024 287.932 338.32 287.932C337.585 287.932 336.933 288.102 336.365 288.443C335.804 288.777 335.365 289.227 335.047 289.795C334.729 290.356 334.566 290.981 334.558 291.67V294.523C334.558 295.386 334.717 296.133 335.036 296.761C335.361 297.39 335.82 297.875 336.411 298.216C337.001 298.557 337.702 298.727 338.513 298.727C339.051 298.727 339.543 298.652 339.99 298.5C340.437 298.348 340.82 298.121 341.138 297.818C341.456 297.515 341.698 297.144 341.865 296.705L346.342 297C346.115 298.076 345.649 299.015 344.945 299.818C344.248 300.614 343.346 301.235 342.24 301.682C341.142 302.121 339.873 302.341 338.433 302.341ZM352.433 302.295C351.683 302.295 351.039 302.03 350.501 301.5C349.971 300.962 349.706 300.318 349.706 299.568C349.706 298.826 349.971 298.189 350.501 297.659C351.039 297.129 351.683 296.864 352.433 296.864C353.161 296.864 353.797 297.129 354.342 297.659C354.888 298.189 355.161 298.826 355.161 299.568C355.161 300.068 355.032 300.527 354.774 300.943C354.524 301.352 354.195 301.682 353.786 301.932C353.376 302.174 352.926 302.295 352.433 302.295Z" fill="#EE3342"/>
</svg>
